PathFileType	4	(X/Y/Z)	pose_F01_0-96.trc
DataRate	CameraRate	NumFrames	NumMarkers	Units	OrigDataRate	OrigDataStartFrame	OrigNumFrames
30	30	5	21	m	30	12	96
Frame#	Time	CHip			RHip			RKnee			RAnkle			RBigToe			RSmallToe			RHeel			LHip			LKnee			LAnkle			LBigToe			LSmallToe			LHeel			Neck			Nose			RShoulder			RElbow			RWrist			LShoulder			LElbow			LWrist			
		X1	Y1	Z1	X2	Y2	Z2	X3	Y3	Z3	X4	Y4	Z4	X5	Y5	Z5	X6	Y6	Z6	X7	Y7	Z7	X8	Y8	Z8	X9	Y9	Z9	X10	Y10	Z10	X11	Y11	Z11	X12	Y12	Z12	X13	Y13	Z13	X14	Y14	Z14	X15	Y15	Z15	X16	Y16	Z16	X17	Y17	Z17	X18	Y18	Z18	X19	Y19	Z19	X20	Y20	Z20	X21	Y21	Z21	
12	0.4	-0.17308813451382923	1.882744750753992	-0.6293706812081875	-0.185664646131539	1.880859259719524	-0.5649738717865227	-0.174487329763693	1.739042548975389	-0.5675256569569841	-0.17451548340921597	1.5976809692769482	-0.5538909338198656	-0.2040657076741375	1.5598661975592634	-0.5273232854300021	-0.20182629850754052	1.5671133644290567	-0.5038343270616985	-0.17019132915518034	1.586897093525847	-0.5659185225446142	-0.1571754065750056	1.884771695807534	-0.6958645667178102	-0.15626424309226983	1.7417183265783616	-0.6765004913237771	-0.1593098379875422	1.5937617872552585	-0.6469656769465671	-0.18497106217056744	1.5506484508713343	-0.6451134328663776	-0.17409698514054947	1.5580388470151367	-0.6735378951541914	-0.15414984673933083	1.5825039224562274	-0.6338901415652413	-0.1643219300283002	2.0511817493696753	-0.6497435513998459	-0.18800579462683895	2.115503346208869	-0.6318078229992554	-0.18400641381358557	2.045707462099381	-0.5543791337766126	-0.18081692548310938	1.9590040361124434	-0.5208277332054071	-0.19591202029536775	1.8836786030045527	-0.4889607457511744	-0.14175009938123284	2.05671401648969	-0.7442472453143039	-0.13924471862318655	1.968768454106179	-0.7586685757950947	-0.1447743296389813	1.891668763162896	-0.7612384465840136
13	0.43333333333333335	-0.17308813451382923	1.882744750753992	-0.6293706812081875	-0.185664646131539	1.880859259719524	-0.5649738717865227	-0.174487329763693	1.739042548975389	-0.5675256569569841	-0.17451548340921597	1.5976809692769482	-0.5538909338198656	-0.2040657076741375	1.5598661975592634	-0.5273232854300021	-0.20182629850754052	1.5671133644290567	-0.5038343270616985	-0.17019132915518034	1.586897093525847	-0.5659185225446142	-0.1571754065750056	1.884771695807534	-0.6958645667178102	-0.15626424309226983	1.7417183265783616	-0.6765004913237771	-0.1593098379875422	1.5937617872552585	-0.6469656769465671	-0.18497106217056744	1.5506484508713343	-0.6451134328663776	-0.17409698514054947	1.5580388470151367	-0.6735378951541914	-0.15414984673933083	1.5825039224562274	-0.6338901415652413	-0.1643219300283002	2.0511817493696753	-0.6497435513998459	-0.18800579462683895	2.115503346208869	-0.6318078229992554	-0.18400641381358557	2.045707462099381	-0.5543791337766126	-0.18081692548310938	1.9590040361124434	-0.5208277332054071	-0.19591202029536775	1.8836786030045527	-0.4889607457511744	-0.14175009938123284	2.05671401648969	-0.7442472453143039	-0.13924471862318655	1.968768454106179	-0.7586685757950947	-0.1447743296389813	1.891668763162896	-0.7612384465840136
14	0.4666666666666667	-0.17308813451382923	1.882744750753992	-0.6293706812081875	-0.185664646131539	1.880859259719524	-0.5649738717865227	-0.174487329763693	1.739042548975389	-0.5675256569569841	-0.17451548340921597	1.5976809692769482	-0.5538909338198656	-0.2040657076741375	1.5598661975592634	-0.5273232854300021	-0.20182629850754052	1.5671133644290567	-0.5038343270616985	-0.17019132915518034	1.586897093525847	-0.5659185225446142	-0.1571754065750056	1.884771695807534	-0.6958645667178102	-0.15626424309226983	1.7417183265783616	-0.6765004913237771	-0.1593098379875422	1.5937617872552585	-0.6469656769465671	-0.18497106217056744	1.5506484508713343	-0.6451134328663776	-0.17409698514054947	1.5580388470151367	-0.6735378951541914	-0.15414984673933083	1.5825039224562274	-0.6338901415652413	-0.1643219300283002	2.0511817493696753	-0.6497435513998459	-0.18800579462683895	2.115503346208869	-0.6318078229992554	-0.18400641381358557	2.045707462099381	-0.5543791337766126	-0.18081692548310938	1.9590040361124434	-0.5208277332054071	-0.19591202029536775	1.8836786030045527	-0.4889607457511744	-0.14175009938123284	2.05671401648969	-0.7442472453143039	-0.13924471862318655	1.968768454106179	-0.7586685757950947	-0.1447743296389813	1.891668763162896	-0.7612384465840136
15	0.5	-0.17292949586681292	1.883925156117908	-0.629513182106325	-0.1834675064730214	1.8807455262642532	-0.5671061173502027	-0.17452486004236145	1.7390070022418347	-0.5674929382544798	-0.17443082503991328	1.600417977334394	-0.5542906064444727	-0.20422368988846024	1.5613495019193075	-0.5270954991356466	-0.2007788548730831	1.567076567304325	-0.5005814784781034	-0.1683187424561234	1.5884476341804905	-0.5680187947448995	-0.15703561682191794	1.8858668488081243	-0.6959426714053576	-0.1544606378883619	1.7417965179256654	-0.6783280905420461	-0.15945921436315147	1.5951969809579059	-0.6468144427218648	-0.1820618452126604	1.552186934134046	-0.6439805658779969	-0.17160098318874314	1.5594011883831964	-0.6764032743638888	-0.15418909566474825	1.585561053907641	-0.6342546275416565	-0.1634222099287023	2.0521529818984248	-0.6467690059319144	-0.1880131284454295	2.1154984990044206	-0.6318170844391708	-0.18398114080955982	2.047072493506191	-0.5549295747596986	-0.18080379811595473	1.9591133292953087	-0.5207666641674219	-0.19665733302111207	1.884886795838233	-0.49229350399927635	-0.14175649930995743	2.0566638412833917	-0.7441827533255799	-0.13951495704547306	1.9676427553595044	-0.7588709283501467	-0.1454193621778058	1.8893124681888518	-0.7610310877395572
16	0.5333333333333333	-0.17291640500670388	1.8839432598603898	-0.6296008600302648	-0.1835308284279346	1.8821382000328144	-0.5674160460515858	-0.17449316527835487	1.7390721529275555	-0.5674990855535962	-0.17446465723124271	1.6003898035287594	-0.5544095804548274	-0.20406479659431745	1.5601444576108303	-0.5274615093463545	-0.2017738081645164	1.5669953243773422	-0.5039494496951439	-0.1703534206731431	1.5882922074750396	-0.5659118874220932	-0.15702369522101198	1.8858875203664054	-0.6960221545304045	-0.15631493569253463	1.7390590912392163	-0.6760600194179853	-0.15960931838688272	1.5924920686181707	-0.6464225639136839	-0.1849856544166526	1.5507691174602622	-0.6451610362254444	-0.17392258053687504	1.55667481583813	-0.6737732366213772	-0.15453679181596103	1.581613228158998	-0.6333211779355152	-0.16430461974847596	2.051174784425694	-0.6497738563060523	-0.18802276049752917	2.115475386621006	-0.6317544768990053	-0.1840260328065821	2.0457240116452096	-0.5544620464024078	-0.18265044735630465	1.9601353479569636	-0.518633129705904	-0.19673195939422086	1.8863877641765365	-0.4925557413978209	-0.14170618700758245	2.056683782643917	-0.7442260116770031	-0.1392480503977171	1.9686940616055908	-0.7585927973781547	-0.14524183942399468	1.8906294118486342	-0.7612025089840407
